<svg xmlns="http://www.w3.org/2000/svg" width="1280" height="320" viewBox="0 0 1280 320" role="img" aria-labelledby="t d">
<title id="t">Rebuttal — A tweet's claim becomes six Nansen trace rows and one word: CONTRADICTED</title>
<desc id="d">A tweet's claim becomes six Nansen trace rows and one word: CONTRADICTED. Paste a claim; six Nansen calls land as trace rows; a deterministic rule fires; the verdict word turns red with the numbers that decided it.</desc>
<!-- STORYBOARD (master dur 8s)
  0-10%   steady state (poster): plate, mark, wordmark, tagline; the claim bar; six landed trace rows; the verdict line below
  14-50%  beat-2 trigger: the rows land one by one — the scan crosses each, the pending dots become a green check, the values fade in
  60-66%  beat-3 mechanism: A tweet's claim becomes six Nansen trace rows and one word: CONTRADICTED.  the claim bar's stroke turns red and CONTRADICTED lands with the rule and the hash
  66-96%  resolution: everything persists; the verdict word breathes once
  96-100% seam: story overlays fade, poster rows fade back in — frame 0 and frame 100% are the same picture
-->
<defs>
  <clipPath id="plate"><rect width="1280" height="320" rx="24"/></clipPath>
  <radialGradient id="glow" cx="50%" cy="0%" r="70%"><stop offset="0" stop-color="#ef4444" stop-opacity=".12"/><stop offset="1" stop-color="#ef4444" stop-opacity="0"/></radialGradient>
</defs>
<g clip-path="url(#plate)">
  <rect width="1280" height="320" fill="#0a0e13"/>
  <rect width="1280" height="320" fill="url(#glow)"/>
  <rect x=".5" y=".5" width="1279" height="319" rx="24" fill="none" stroke="#22303d"/>
  
  <!-- brand column -->
  <g transform="translate(40 40)">
    <rect x="0" y="0" width="64" height="64" rx="14" fill="#0f141b" stroke="#2c3b4b"/>
    <rect x="10" y="14" width="44" height="10" rx="3" fill="#2c3b4b"/>
    <rect x="10" y="27" width="44" height="10" rx="3" fill="#ef4444"/>
    <rect x="10" y="40" width="44" height="10" rx="3" fill="#2c3b4b"/>
  </g>
  <g transform="translate(120 88)"><path d="M14.2 0L4.4 0L4.4 -48L23.1 -48Q28.6 -48 32.4 -46.1Q36.2 -44.2 38.2 -40.6Q40.3 -37.1 40.3 -32.4Q40.3 -27.7 38.2 -24.2Q36.2 -20.8 32.3 -19L32.3 -19Q32 -18.9 31.7 -18.7L31.7 -18.7L42 0L31.1 0L21.9 -17.1L14.2 -17.1L14.2 0ZM14.2 -39.9L14.2 -25.1L21.3 -25.1Q24.3 -25.1 26.2 -25.9Q28.2 -26.7 29.1 -28.4Q30.1 -30 30.1 -32.4L30.1 -32.4Q30.1 -34.8 29.1 -36.5Q28.2 -38.2 26.2 -39Q24.3 -39.9 21.2 -39.9L21.2 -39.9L14.2 -39.9ZM63.7 0.7L63.7 0.7Q58.2 0.7 54.2 -1.5Q50.2 -3.8 48.1 -8Q46 -12.1 46 -17.8L46 -17.8Q46 -23.4 48.1 -27.6Q50.2 -31.8 54.1 -34.1Q58 -36.5 63.3 -36.5L63.3 -36.5Q66.8 -36.5 69.9 -35.4Q72.9 -34.2 75.2 -32Q77.6 -29.7 78.9 -26.3Q80.2 -22.8 80.2 -18.2L80.2 -18.2L80.2 -15.5L55.5 -15.5Q55.6 -12.8 56.6 -10.8L56.6 -10.8Q57.6 -8.7 59.5 -7.6Q61.4 -6.6 63.9 -6.6L63.9 -6.6Q65.6 -6.6 67 -7.1Q68.4 -7.5 69.4 -8.5Q70.4 -9.4 70.9 -10.8L70.9 -10.8L79.6 -9.2Q78.8 -6.2 76.6 -4Q74.4 -1.7 71.2 -0.5Q68 0.7 63.7 0.7ZM55.6 -21.6L55.6 -21.6L70.9 -21.6Q70.7 -23.4 70.1 -24.8L70.1 -24.8Q69.2 -26.9 67.5 -28.1Q65.8 -29.2 63.4 -29.2L63.4 -29.2Q60.8 -29.2 59.1 -28Q57.3 -26.9 56.4 -24.9L56.4 -24.9Q55.8 -23.4 55.6 -21.6ZM107 0.6L107 0.6Q104 0.6 102 -0.4Q100 -1.4 98.7 -2.9Q97.4 -4.3 96.7 -5.8L96.7 -5.8L96.3 -5.8L96.3 0L86.8 0L86.8 -48L96.5 -48L96.5 -30L96.7 -30Q97.4 -31.4 98.7 -32.9Q99.9 -34.4 101.9 -35.4Q104 -36.5 107 -36.5L107 -36.5Q111 -36.5 114.3 -34.4Q117.7 -32.4 119.6 -28.2Q121.6 -24.1 121.6 -18L121.6 -18Q121.6 -12 119.7 -7.8Q117.8 -3.7 114.4 -1.5Q111.1 0.6 107 0.6ZM104 -7.2L104 -7.2Q106.5 -7.2 108.2 -8.5Q110 -9.9 110.8 -12.4Q111.7 -14.8 111.7 -18L111.7 -18Q111.7 -21.1 110.8 -23.6Q110 -26 108.2 -27.4Q106.5 -28.7 104 -28.7L104 -28.7Q101.5 -28.7 99.8 -27.4Q98 -26.1 97.1 -23.7Q96.2 -21.3 96.2 -18L96.2 -18Q96.2 -14.7 97.1 -12.3Q98.1 -9.9 99.8 -8.5Q101.5 -7.2 104 -7.2ZM140.8 0.5L140.8 0.5Q137.1 0.5 134.3 -1.2Q131.5 -2.8 129.9 -5.8Q128.4 -8.9 128.4 -13.1L128.4 -13.1L128.4 -36L138.1 -36L138.1 -14.8Q138.1 -11.4 139.8 -9.5Q141.5 -7.6 144.6 -7.6L144.6 -7.6Q146.6 -7.6 148.2 -8.5Q149.8 -9.4 150.7 -11.1Q151.6 -12.8 151.6 -15.2L151.6 -15.2L151.6 -36L161.3 -36L161.3 0L152.1 0L152 -7.5Q150.6 -4 148.2 -2L148.2 -2Q145.3 0.5 140.8 0.5ZM180.6 -36L187.4 -36L187.4 -28.6L180.6 -28.6L180.6 -10.5Q180.6 -8.8 181.4 -8Q182.1 -7.2 183.9 -7.2L183.9 -7.2Q184.5 -7.2 185.5 -7.3Q186.5 -7.5 187 -7.6L187 -7.6L188.4 -0.4Q186.8 0.1 185.2 0.3Q183.6 0.5 182.1 0.5L182.1 0.5Q176.7 0.5 173.8 -2.1Q171 -4.8 171 -9.7L171 -9.7L171 -28.6L166 -28.6L166 -36L171 -36L171 -44.6L180.6 -44.6L180.6 -36ZM204.8 -36L211.5 -36L211.5 -28.6L204.8 -28.6L204.8 -10.5Q204.8 -8.8 205.6 -8Q206.3 -7.2 208.1 -7.2L208.1 -7.2Q208.6 -7.2 209.6 -7.3Q210.6 -7.5 211.1 -7.6L211.1 -7.6L212.5 -0.4Q210.9 0.1 209.3 0.3Q207.7 0.5 206.3 0.5L206.3 0.5Q200.9 0.5 198 -2.1Q195.1 -4.8 195.1 -9.7L195.1 -9.7L195.1 -28.6L190.2 -28.6L190.2 -36L195.1 -36L195.1 -44.6L204.8 -44.6L204.8 -36ZM227.9 0.7L227.9 0.7Q224.5 0.7 221.7 -0.5Q219 -1.7 217.4 -4.1Q215.9 -6.5 215.9 -10.1L215.9 -10.1Q215.9 -13.1 217 -15.1Q218.1 -17.1 220 -18.4Q221.9 -19.6 224.4 -20.2Q226.8 -20.9 229.5 -21.1L229.5 -21.1Q232.6 -21.5 234.5 -21.7Q236.4 -22 237.3 -22.6Q238.2 -23.2 238.2 -24.4L238.2 -24.4L238.2 -24.5Q238.2 -26.1 237.6 -27.1Q236.9 -28.2 235.7 -28.8Q234.4 -29.3 232.6 -29.3L232.6 -29.3Q230.7 -29.3 229.3 -28.8Q227.9 -28.2 227.1 -27.3Q226.2 -26.3 225.8 -25.2L225.8 -25.2L216.9 -26.6Q217.9 -29.8 220 -32Q222.2 -34.2 225.4 -35.3Q228.6 -36.5 232.6 -36.5L232.6 -36.5Q235.5 -36.5 238.3 -35.8Q241 -35.1 243.2 -33.6Q245.3 -32.2 246.6 -29.9Q247.9 -27.5 247.9 -24.3L247.9 -24.3L247.9 0L238.7 0L238.7 -5L238.4 -5Q237.5 -3.3 236.1 -2Q234.6 -0.8 232.6 0Q230.5 0.7 227.9 0.7ZM230.6 -6.1L230.6 -6.1Q232.9 -6.1 234.6 -7Q236.3 -7.9 237.3 -9.4Q238.3 -11 238.3 -12.9L238.3 -12.9L238.3 -16.8Q237.9 -16.5 237 -16.2Q236.1 -16 235.1 -15.8Q234 -15.6 233 -15.4Q231.9 -15.2 231.1 -15.1L231.1 -15.1Q229.4 -14.9 228 -14.3Q226.6 -13.7 225.9 -12.8Q225.2 -11.8 225.2 -10.3L225.2 -10.3Q225.2 -9 225.9 -8Q226.6 -7.1 227.8 -6.6Q229 -6.1 230.6 -6.1ZM256.1 -48L265.8 -48L265.8 0L256.1 0L256.1 -48Z" fill="#e6edf3"/></g>
  <text x="40" y="146" font-family="'Segoe UI', system-ui, -apple-system, sans-serif" font-size="17" fill="#b6c2cf">Paste “Smart Money is buying $X”.</text>
  <text x="40" y="170" font-family="'Segoe UI', system-ui, -apple-system, sans-serif" font-size="17" fill="#b6c2cf">Six Nansen calls decide whether it’s true — and show their work.</text>
  <g transform="translate(40 200)">
    <rect width="500" height="1" fill="#22303d"/>
    <text x="0" y="30" font-family="ui-monospace, SFMono-Regular, Menlo, Consolas, monospace" font-size="12.5" fill="#8b9bab">10 credits · 7 calls · 3.5 s · rules, not opinions · sha256 hash</text>
    <text x="0" y="52" font-family="ui-monospace, SFMono-Regular, Menlo, Consolas, monospace" font-size="12.5" fill="#8b9bab">CONFIRMED · OVERSTATED · CONTRADICTED · UNVERIFIABLE</text>
    <text x="0" y="74" font-family="'Segoe UI', system-ui, -apple-system, sans-serif" font-size="12.5" fill="#8b9bab">built on the Nansen API · Meridian Buildathon · @edycutjong</text>
  </g>
  <!-- poster layer: the finished picture (visible at t=0 and at the seam) -->
  <g>
    <animate attributeName="opacity" values="1;1;0;0;1" keyTimes="0;.10;.12;.96;1" dur="8s" repeatCount="indefinite" />
    
  <g transform="translate(584 28)">
    <rect width="656" height="34" rx="8" fill="#0f141b" stroke="#ef4444"/>
    <text x="14" y="22" font-family="'Segoe UI', system-ui, -apple-system, sans-serif" font-size="14" font-style="italic" fill="#e6edf3">“Smart Money is aping $PEPE hard today 🐋”</text>
    <text x="644" y="22" text-anchor="end" font-family="ui-monospace, SFMono-Regular, Menlo, Consolas, monospace" font-size="11.5" fill="#8b9bab">claim · PEPE · ethereum</text>
  </g>
    <g transform="translate(584 72)"><rect width="656" height="27" rx="7" fill="#182130" stroke="#22303d"/><text x="12" y="18.5" font-family="ui-monospace, SFMono-Regular, Menlo, Consolas, monospace" font-size="13" font-weight="700" fill="#22c55e">✔</text><text x="32" y="18.5" font-family="ui-monospace, SFMono-Regular, Menlo, Consolas, monospace" font-size="12.5" fill="#e6edf3">tgm/flow-intelligence</text><text x="212" y="18.5" font-family="ui-monospace, SFMono-Regular, Menlo, Consolas, monospace" font-size="11.5" fill="#8b9bab">1d</text><text x="284" y="18.5" font-family="'Segoe UI', system-ui, -apple-system, sans-serif" font-size="12.5" fill="#b6c2cf">smart_trader_net_flow_usd = $0 · wallets 0</text><text x="644" y="18.5" text-anchor="end" font-family="ui-monospace, SFMono-Regular, Menlo, Consolas, monospace" font-size="11.5" fill="#8b9bab">1 cr</text></g>
    <g transform="translate(584 103)"><rect width="656" height="27" rx="7" fill="#182130" stroke="#22303d"/><text x="12" y="18.5" font-family="ui-monospace, SFMono-Regular, Menlo, Consolas, monospace" font-size="13" font-weight="700" fill="#22c55e">✔</text><text x="32" y="18.5" font-family="ui-monospace, SFMono-Regular, Menlo, Consolas, monospace" font-size="12.5" fill="#e6edf3">tgm/flow-intelligence</text><text x="212" y="18.5" font-family="ui-monospace, SFMono-Regular, Menlo, Consolas, monospace" font-size="11.5" fill="#8b9bab">7d</text><text x="284" y="18.5" font-family="'Segoe UI', system-ui, -apple-system, sans-serif" font-size="12.5" fill="#b6c2cf">smart_trader_net_flow_usd = $5K · wallets 53</text><text x="644" y="18.5" text-anchor="end" font-family="ui-monospace, SFMono-Regular, Menlo, Consolas, monospace" font-size="11.5" fill="#8b9bab">1 cr</text></g>
    <g transform="translate(584 134)"><rect width="656" height="27" rx="7" fill="#182130" stroke="#22303d"/><text x="12" y="18.5" font-family="ui-monospace, SFMono-Regular, Menlo, Consolas, monospace" font-size="13" font-weight="700" fill="#22c55e">✔</text><text x="32" y="18.5" font-family="ui-monospace, SFMono-Regular, Menlo, Consolas, monospace" font-size="12.5" fill="#e6edf3">tgm/who-bought-sold</text><text x="212" y="18.5" font-family="ui-monospace, SFMono-Regular, Menlo, Consolas, monospace" font-size="11.5" fill="#8b9bab">BUY 24h</text><text x="284" y="18.5" font-family="'Segoe UI', system-ui, -apple-system, sans-serif" font-size="12.5" fill="#b6c2cf">Smart Money buyers: 0 rows · $0</text><text x="644" y="18.5" text-anchor="end" font-family="ui-monospace, SFMono-Regular, Menlo, Consolas, monospace" font-size="11.5" fill="#8b9bab">1 cr</text></g>
    <g transform="translate(584 165)"><rect width="656" height="27" rx="7" fill="#182130" stroke="#22303d"/><text x="12" y="18.5" font-family="ui-monospace, SFMono-Regular, Menlo, Consolas, monospace" font-size="13" font-weight="700" fill="#22c55e">✔</text><text x="32" y="18.5" font-family="ui-monospace, SFMono-Regular, Menlo, Consolas, monospace" font-size="12.5" fill="#e6edf3">tgm/who-bought-sold</text><text x="212" y="18.5" font-family="ui-monospace, SFMono-Regular, Menlo, Consolas, monospace" font-size="11.5" fill="#8b9bab">SELL 24h</text><text x="284" y="18.5" font-family="'Segoe UI', system-ui, -apple-system, sans-serif" font-size="12.5" fill="#b6c2cf">Smart Money sellers: 0 rows · $0</text><text x="644" y="18.5" text-anchor="end" font-family="ui-monospace, SFMono-Regular, Menlo, Consolas, monospace" font-size="11.5" fill="#8b9bab">1 cr</text></g>
    <g transform="translate(584 196)"><rect width="656" height="27" rx="7" fill="#182130" stroke="#22303d"/><text x="12" y="18.5" font-family="ui-monospace, SFMono-Regular, Menlo, Consolas, monospace" font-size="13" font-weight="700" fill="#22c55e">✔</text><text x="32" y="18.5" font-family="ui-monospace, SFMono-Regular, Menlo, Consolas, monospace" font-size="12.5" fill="#e6edf3">smart-money/netflow</text><text x="212" y="18.5" font-family="ui-monospace, SFMono-Regular, Menlo, Consolas, monospace" font-size="11.5" fill="#8b9bab">token</text><text x="284" y="18.5" font-family="'Segoe UI', system-ui, -apple-system, sans-serif" font-size="12.5" fill="#b6c2cf">on the table · 24h $0 · 89 traders</text><text x="644" y="18.5" text-anchor="end" font-family="ui-monospace, SFMono-Regular, Menlo, Consolas, monospace" font-size="11.5" fill="#8b9bab">5 cr</text></g>
    <g transform="translate(584 227)"><rect width="656" height="27" rx="7" fill="#182130" stroke="#22303d"/><text x="12" y="18.5" font-family="ui-monospace, SFMono-Regular, Menlo, Consolas, monospace" font-size="13" font-weight="700" fill="#22c55e">✔</text><text x="32" y="18.5" font-family="ui-monospace, SFMono-Regular, Menlo, Consolas, monospace" font-size="12.5" fill="#e6edf3">tgm/token-ohlcv</text><text x="212" y="18.5" font-family="ui-monospace, SFMono-Regular, Menlo, Consolas, monospace" font-size="11.5" fill="#8b9bab">1h × 24</text><text x="284" y="18.5" font-family="'Segoe UI', system-ui, -apple-system, sans-serif" font-size="12.5" fill="#b6c2cf">price +7.9% over 24 h</text><text x="644" y="18.5" text-anchor="end" font-family="ui-monospace, SFMono-Regular, Menlo, Consolas, monospace" font-size="11.5" fill="#8b9bab">1 cr</text></g>
    
  <g transform="translate(584 282)">
    
    <text x="0" y="0" font-family="'Segoe UI', system-ui, -apple-system, sans-serif" font-size="24" font-weight="800" letter-spacing="-.5" fill="#ef4444">CONTRADICTED</text>
    <text x="196" y="0" font-family="ui-monospace, SFMono-Regular, Menlo, Consolas, monospace" font-size="12" fill="#8b9bab">rule C-NOBODY · hash e21a8a19ae59</text>
    <text x="0" y="18.5" font-family="'Segoe UI', system-ui, -apple-system, sans-serif" font-size="12.5" fill="#b6c2cf">no Smart Money wallet traded PEPE in 24 h · 89 Smart Money traders on its table · fresh wallets bought $1.14M</text>
  </g>
  </g>
  <!-- story layer: the same rows, landing -->
  <g opacity="0" data-story="beat-2">
    <animate attributeName="opacity" values="0;0;1;1;0" keyTimes="0;.10;.12;.96;1" dur="8s" repeatCount="indefinite" />
    
  <g transform="translate(584 28)">
    <rect width="656" height="34" rx="8" fill="#0f141b" stroke="#2c3b4b"><animate attributeName="stroke" values="#2c3b4b;#2c3b4b;#ef4444;#ef4444;#2c3b4b" keyTimes="0;.60;.66;.96;1" dur="8s" repeatCount="indefinite" /></rect>
    <text x="14" y="22" font-family="'Segoe UI', system-ui, -apple-system, sans-serif" font-size="14" font-style="italic" fill="#e6edf3">“Smart Money is aping $PEPE hard today 🐋”</text>
    <text x="644" y="22" text-anchor="end" font-family="ui-monospace, SFMono-Regular, Menlo, Consolas, monospace" font-size="11.5" fill="#8b9bab">claim · PEPE · ethereum</text>
  </g>
    <g transform="translate(584 72)" data-story="beat-2"><rect width="656" height="27" rx="7" fill="#182130" stroke="#22303d"/><text x="14" y="18.5" font-family="ui-monospace, SFMono-Regular, Menlo, Consolas, monospace" font-size="13" fill="#8b9bab">…<animate attributeName="opacity" values="1;1;0;0;1" keyTimes="0;0.14;0.16;.96;1" dur="8s" repeatCount="indefinite" /></text><text x="12" y="18.5" font-family="ui-monospace, SFMono-Regular, Menlo, Consolas, monospace" font-size="13" font-weight="700" fill="#22c55e" opacity="0" data-story="beat-2">✔<animate attributeName="opacity" values="0;0;1;1;0" keyTimes="0;0.14;0.16;.96;1" dur="8s" repeatCount="indefinite" /></text><text x="32" y="18.5" font-family="ui-monospace, SFMono-Regular, Menlo, Consolas, monospace" font-size="12.5" fill="#e6edf3">tgm/flow-intelligence</text><text x="212" y="18.5" font-family="ui-monospace, SFMono-Regular, Menlo, Consolas, monospace" font-size="11.5" fill="#8b9bab">1d</text><text x="284" y="18.5" font-family="'Segoe UI', system-ui, -apple-system, sans-serif" font-size="12.5" fill="#b6c2cf" opacity="0" data-story="beat-2">smart_trader_net_flow_usd = $0 · wallets 0<animate attributeName="opacity" values="0;0;1;1;0" keyTimes="0;0.14;0.17;.96;1" dur="8s" repeatCount="indefinite" /></text><text x="644" y="18.5" text-anchor="end" font-family="ui-monospace, SFMono-Regular, Menlo, Consolas, monospace" font-size="11.5" fill="#8b9bab">1 cr</text><rect x="0" y="0" width="656" height="27" rx="7" fill="#38bdf8" opacity="0" data-story="beat-2"><animate attributeName="opacity" values="0;0;.18;0;0" keyTimes="0;0.13;0.14;0.17;1" dur="8s" repeatCount="indefinite" /></rect></g>
    <g transform="translate(584 103)" data-story="beat-2"><rect width="656" height="27" rx="7" fill="#182130" stroke="#22303d"/><text x="14" y="18.5" font-family="ui-monospace, SFMono-Regular, Menlo, Consolas, monospace" font-size="13" fill="#8b9bab">…<animate attributeName="opacity" values="1;1;0;0;1" keyTimes="0;0.2;0.22;.96;1" dur="8s" repeatCount="indefinite" /></text><text x="12" y="18.5" font-family="ui-monospace, SFMono-Regular, Menlo, Consolas, monospace" font-size="13" font-weight="700" fill="#22c55e" opacity="0" data-story="beat-2">✔<animate attributeName="opacity" values="0;0;1;1;0" keyTimes="0;0.2;0.22;.96;1" dur="8s" repeatCount="indefinite" /></text><text x="32" y="18.5" font-family="ui-monospace, SFMono-Regular, Menlo, Consolas, monospace" font-size="12.5" fill="#e6edf3">tgm/flow-intelligence</text><text x="212" y="18.5" font-family="ui-monospace, SFMono-Regular, Menlo, Consolas, monospace" font-size="11.5" fill="#8b9bab">7d</text><text x="284" y="18.5" font-family="'Segoe UI', system-ui, -apple-system, sans-serif" font-size="12.5" fill="#b6c2cf" opacity="0" data-story="beat-2">smart_trader_net_flow_usd = $5K · wallets 53<animate attributeName="opacity" values="0;0;1;1;0" keyTimes="0;0.2;0.23;.96;1" dur="8s" repeatCount="indefinite" /></text><text x="644" y="18.5" text-anchor="end" font-family="ui-monospace, SFMono-Regular, Menlo, Consolas, monospace" font-size="11.5" fill="#8b9bab">1 cr</text><rect x="0" y="0" width="656" height="27" rx="7" fill="#38bdf8" opacity="0" data-story="beat-2"><animate attributeName="opacity" values="0;0;.18;0;0" keyTimes="0;0.19;0.2;0.23;1" dur="8s" repeatCount="indefinite" /></rect></g>
    <g transform="translate(584 134)" data-story="beat-2"><rect width="656" height="27" rx="7" fill="#182130" stroke="#22303d"/><text x="14" y="18.5" font-family="ui-monospace, SFMono-Regular, Menlo, Consolas, monospace" font-size="13" fill="#8b9bab">…<animate attributeName="opacity" values="1;1;0;0;1" keyTimes="0;0.26;0.28;.96;1" dur="8s" repeatCount="indefinite" /></text><text x="12" y="18.5" font-family="ui-monospace, SFMono-Regular, Menlo, Consolas, monospace" font-size="13" font-weight="700" fill="#22c55e" opacity="0" data-story="beat-2">✔<animate attributeName="opacity" values="0;0;1;1;0" keyTimes="0;0.26;0.28;.96;1" dur="8s" repeatCount="indefinite" /></text><text x="32" y="18.5" font-family="ui-monospace, SFMono-Regular, Menlo, Consolas, monospace" font-size="12.5" fill="#e6edf3">tgm/who-bought-sold</text><text x="212" y="18.5" font-family="ui-monospace, SFMono-Regular, Menlo, Consolas, monospace" font-size="11.5" fill="#8b9bab">BUY 24h</text><text x="284" y="18.5" font-family="'Segoe UI', system-ui, -apple-system, sans-serif" font-size="12.5" fill="#b6c2cf" opacity="0" data-story="beat-2">Smart Money buyers: 0 rows · $0<animate attributeName="opacity" values="0;0;1;1;0" keyTimes="0;0.26;0.29;.96;1" dur="8s" repeatCount="indefinite" /></text><text x="644" y="18.5" text-anchor="end" font-family="ui-monospace, SFMono-Regular, Menlo, Consolas, monospace" font-size="11.5" fill="#8b9bab">1 cr</text><rect x="0" y="0" width="656" height="27" rx="7" fill="#38bdf8" opacity="0" data-story="beat-2"><animate attributeName="opacity" values="0;0;.18;0;0" keyTimes="0;0.25;0.26;0.29;1" dur="8s" repeatCount="indefinite" /></rect></g>
    <g transform="translate(584 165)" data-story="beat-2"><rect width="656" height="27" rx="7" fill="#182130" stroke="#22303d"/><text x="14" y="18.5" font-family="ui-monospace, SFMono-Regular, Menlo, Consolas, monospace" font-size="13" fill="#8b9bab">…<animate attributeName="opacity" values="1;1;0;0;1" keyTimes="0;0.32;0.34;.96;1" dur="8s" repeatCount="indefinite" /></text><text x="12" y="18.5" font-family="ui-monospace, SFMono-Regular, Menlo, Consolas, monospace" font-size="13" font-weight="700" fill="#22c55e" opacity="0" data-story="beat-2">✔<animate attributeName="opacity" values="0;0;1;1;0" keyTimes="0;0.32;0.34;.96;1" dur="8s" repeatCount="indefinite" /></text><text x="32" y="18.5" font-family="ui-monospace, SFMono-Regular, Menlo, Consolas, monospace" font-size="12.5" fill="#e6edf3">tgm/who-bought-sold</text><text x="212" y="18.5" font-family="ui-monospace, SFMono-Regular, Menlo, Consolas, monospace" font-size="11.5" fill="#8b9bab">SELL 24h</text><text x="284" y="18.5" font-family="'Segoe UI', system-ui, -apple-system, sans-serif" font-size="12.5" fill="#b6c2cf" opacity="0" data-story="beat-2">Smart Money sellers: 0 rows · $0<animate attributeName="opacity" values="0;0;1;1;0" keyTimes="0;0.32;0.35;.96;1" dur="8s" repeatCount="indefinite" /></text><text x="644" y="18.5" text-anchor="end" font-family="ui-monospace, SFMono-Regular, Menlo, Consolas, monospace" font-size="11.5" fill="#8b9bab">1 cr</text><rect x="0" y="0" width="656" height="27" rx="7" fill="#38bdf8" opacity="0" data-story="beat-2"><animate attributeName="opacity" values="0;0;.18;0;0" keyTimes="0;0.31;0.32;0.35;1" dur="8s" repeatCount="indefinite" /></rect></g>
    <g transform="translate(584 196)" data-story="beat-2"><rect width="656" height="27" rx="7" fill="#182130" stroke="#22303d"/><text x="14" y="18.5" font-family="ui-monospace, SFMono-Regular, Menlo, Consolas, monospace" font-size="13" fill="#8b9bab">…<animate attributeName="opacity" values="1;1;0;0;1" keyTimes="0;0.38;0.4;.96;1" dur="8s" repeatCount="indefinite" /></text><text x="12" y="18.5" font-family="ui-monospace, SFMono-Regular, Menlo, Consolas, monospace" font-size="13" font-weight="700" fill="#22c55e" opacity="0" data-story="beat-2">✔<animate attributeName="opacity" values="0;0;1;1;0" keyTimes="0;0.38;0.4;.96;1" dur="8s" repeatCount="indefinite" /></text><text x="32" y="18.5" font-family="ui-monospace, SFMono-Regular, Menlo, Consolas, monospace" font-size="12.5" fill="#e6edf3">smart-money/netflow</text><text x="212" y="18.5" font-family="ui-monospace, SFMono-Regular, Menlo, Consolas, monospace" font-size="11.5" fill="#8b9bab">token</text><text x="284" y="18.5" font-family="'Segoe UI', system-ui, -apple-system, sans-serif" font-size="12.5" fill="#b6c2cf" opacity="0" data-story="beat-2">on the table · 24h $0 · 89 traders<animate attributeName="opacity" values="0;0;1;1;0" keyTimes="0;0.38;0.41;.96;1" dur="8s" repeatCount="indefinite" /></text><text x="644" y="18.5" text-anchor="end" font-family="ui-monospace, SFMono-Regular, Menlo, Consolas, monospace" font-size="11.5" fill="#8b9bab">5 cr</text><rect x="0" y="0" width="656" height="27" rx="7" fill="#38bdf8" opacity="0" data-story="beat-2"><animate attributeName="opacity" values="0;0;.18;0;0" keyTimes="0;0.37;0.38;0.41;1" dur="8s" repeatCount="indefinite" /></rect></g>
    <g transform="translate(584 227)" data-story="beat-2"><rect width="656" height="27" rx="7" fill="#182130" stroke="#22303d"/><text x="14" y="18.5" font-family="ui-monospace, SFMono-Regular, Menlo, Consolas, monospace" font-size="13" fill="#8b9bab">…<animate attributeName="opacity" values="1;1;0;0;1" keyTimes="0;0.44;0.46;.96;1" dur="8s" repeatCount="indefinite" /></text><text x="12" y="18.5" font-family="ui-monospace, SFMono-Regular, Menlo, Consolas, monospace" font-size="13" font-weight="700" fill="#22c55e" opacity="0" data-story="beat-2">✔<animate attributeName="opacity" values="0;0;1;1;0" keyTimes="0;0.44;0.46;.96;1" dur="8s" repeatCount="indefinite" /></text><text x="32" y="18.5" font-family="ui-monospace, SFMono-Regular, Menlo, Consolas, monospace" font-size="12.5" fill="#e6edf3">tgm/token-ohlcv</text><text x="212" y="18.5" font-family="ui-monospace, SFMono-Regular, Menlo, Consolas, monospace" font-size="11.5" fill="#8b9bab">1h × 24</text><text x="284" y="18.5" font-family="'Segoe UI', system-ui, -apple-system, sans-serif" font-size="12.5" fill="#b6c2cf" opacity="0" data-story="beat-2">price +7.9% over 24 h<animate attributeName="opacity" values="0;0;1;1;0" keyTimes="0;0.44;0.47;.96;1" dur="8s" repeatCount="indefinite" /></text><text x="644" y="18.5" text-anchor="end" font-family="ui-monospace, SFMono-Regular, Menlo, Consolas, monospace" font-size="11.5" fill="#8b9bab">1 cr</text><rect x="0" y="0" width="656" height="27" rx="7" fill="#38bdf8" opacity="0" data-story="beat-2"><animate attributeName="opacity" values="0;0;.18;0;0" keyTimes="0;0.43;0.44;0.47;1" dur="8s" repeatCount="indefinite" /></rect></g>
    
  <g transform="translate(584 282)" data-story="beat-3" opacity="0">
    <animate attributeName="opacity" values="0;0;1;1;0" keyTimes="0;.60;.66;.96;1" dur="8s" repeatCount="indefinite" />
    <text x="0" y="0" font-family="'Segoe UI', system-ui, -apple-system, sans-serif" font-size="24" font-weight="800" letter-spacing="-.5" fill="#ef4444">CONTRADICTED</text>
    <text x="196" y="0" font-family="ui-monospace, SFMono-Regular, Menlo, Consolas, monospace" font-size="12" fill="#8b9bab">rule C-NOBODY · hash e21a8a19ae59</text>
    <text x="0" y="18.5" font-family="'Segoe UI', system-ui, -apple-system, sans-serif" font-size="12.5" fill="#b6c2cf">no Smart Money wallet traded PEPE in 24 h · 89 Smart Money traders on its table · fresh wallets bought $1.14M</text>
  </g>
  </g>
</g>
</svg>
